<svg style="height: 512px; width: 512px;" xmlns="http://www.w3.org/2000/svg" viewBox="0 0 512 512"><polygon points="406.47,463.11,256,426.67,105.53,463.11,93.69,308.74,12.53,176.89,155.68,117.93,256,0,356.32,117.93,499.47,176.89,418.31,308.74" fill="#fe1e3a" fill-opacity="1"></polygon><g class="" style="" transform="translate(1,-5)"><path d="M256 38.013c-22.458 0-66.472 110.3-84.64 123.502-18.17 13.2-136.674 20.975-143.614 42.334-6.94 21.358 84.362 97.303 91.302 118.662 6.94 21.36-22.286 136.465-4.116 149.665 18.17 13.2 118.61-50.164 141.068-50.164 22.458 0 122.9 63.365 141.068 50.164 18.17-13.2-11.056-128.306-4.116-149.665 6.94-21.36 98.242-97.304 91.302-118.663-6.94-21.36-125.444-29.134-143.613-42.335-18.168-13.2-62.182-123.502-84.64-123.502z" fill="#f5a623" fill-opacity="1" transform="translate(51.2, 51.2) scale(0.8, 0.8) rotate(0, 256, 256) skewX(0) skewY(0)"></path></g></svg>